<?xml version="1.0" standalone="no"?>
<!DOCTYPE svg PUBLIC "-//W3C//DTD SVG 20010904//EN"
 "http://www.w3.org/TR/2001/REC-SVG-20010904/DTD/svg10.dtd">
<svg version="1.0" xmlns="http://www.w3.org/2000/svg"
 width="512.000000pt" height="512.000000pt" viewBox="0 0 512.000000 512.000000"
 preserveAspectRatio="xMidYMid meet">
<metadata>
Created by potrace 1.14, written by Peter Selinger 2001-2017
</metadata>
<g transform="translate(0.000000,512.000000) scale(0.100000,-0.100000)"
fill="#000000" stroke="none">
<path d="M2358 4960 c-567 -51 -1089 -293 -1489 -690 -207 -205 -343 -395
-469 -654 -120 -245 -194 -489 -231 -766 -17 -122 -17 -458 0 -580 111 -822
600 -1510 1326 -1865 179 -88 300 -134 461 -174 576 -145 1135 -88 1660 169
483 236 859 609 1094 1085 92 187 138 306 179 471 105 418 104 813 -4 1228
-38 147 -87 273 -175 451 -350 709 -1029 1197 -1825 1310 -128 19 -402 26
-527 15z m-288 -598 c0 -12 7 -39 15 -58 12 -30 19 -36 38 -32 20 4 23 1 19
-19 -4 -19 2 -26 32 -38 19 -8 49 -15 66 -15 16 0 30 -4 30 -10 0 -5 -14 -10
-30 -10 -17 0 -47 -7 -66 -15 -30 -12 -36 -19 -32 -38 4 -19 0 -22 -21 -22
-26 0 -37 -20 -57 -110 -7 -28 -8 -26 -14 21 -10 70 -26 97 -54 92 -19 -4 -22
-1 -18 19 4 19 -2 26 -32 38 -19 8 -49 15 -66 15 -16 0 -30 5 -30 10 0 6 14
10 30 10 17 0 47 7 66 15 30 12 36 19 32 38 -4 20 -1 23 18 19 28 -5 43 21 51
89 6 50 23 51 23 1z m1528 -134 c7 1 12 -5 12 -13 0 -8 7 -15 15 -15 8 0 15
-4 15 -10 0 -5 -7 -10 -15 -10 -8 0 -15 -7 -15 -15 0 -8 -6 -14 -12 -12 -7 1
-14 -9 -16 -22 -4 -23 -4 -22 -23 9 -11 18 -29 34 -40 37 -25 7 -24 19 1 26
11 3 28 19 37 36 17 30 18 30 24 8 3 -12 11 -21 17 -19z m-746 -486 c7 -22 15
-32 24 -28 9 3 14 -2 14 -15 0 -14 9 -21 30 -25 17 -4 30 -10 30 -14 0 -4 -13
-10 -30 -13 -22 -5 -30 -12 -30 -27 0 -12 -4 -19 -9 -15 -14 8 -41 -36 -42
-70 -1 -28 -2 -27 -10 9 -10 44 -27 69 -40 60 -5 -3 -9 4 -9 15 0 20 -5 23
-65 34 -22 4 -11 11 38 21 18 4 27 13 27 26 0 13 5 18 15 14 16 -7 34 30 36
74 1 20 2 22 6 7 2 -11 9 -35 15 -53z m-12 -512 c534 -16 922 -55 1288 -131
365 -76 616 -179 705 -291 34 -43 46 -112 27 -158 -44 -105 -293 -229 -607
-301 l-103 -24 -6 -35 c-25 -155 -118 -259 -263 -296 -80 -20 -147 -13 -227
25 -67 32 -145 111 -166 168 l-13 36 -100 -7 c-258 -16 -253 -15 -276 -52 -11
-18 -53 -64 -94 -102 -119 -112 -249 -164 -434 -176 -178 -12 -335 50 -461
181 -41 43 -84 90 -95 105 -19 26 -24 27 -170 38 -855 61 -1475 231 -1581 432
-19 36 -18 92 2 134 111 234 930 423 1969 453 138 4 261 8 275 9 14 1 162 -3
330 -8z m-966 -1588 c4 -7 13 -12 21 -12 7 0 15 -7 17 -17 2 -9 21 -22 43 -29
34 -10 36 -12 13 -13 -40 -2 -58 -11 -58 -32 0 -12 -7 -19 -19 -19 -19 0 -30
-24 -32 -70 0 -18 -5 -11 -15 23 -11 35 -20 47 -34 47 -13 0 -17 5 -14 14 7
18 -24 36 -63 37 -27 1 -27 1 7 13 48 15 62 26 56 41 -3 8 2 11 14 8 16 -4 21
4 32 43 l12 49 6 -35 c3 -20 10 -41 14 -48z m1326 -357 c8 -9 23 -15 35 -13
18 4 21 1 17 -19 -4 -19 2 -26 32 -38 19 -8 46 -15 60 -15 47 0 35 -17 -15
-23 -61 -7 -82 -23 -76 -54 3 -19 1 -22 -18 -17 -30 7 -44 -13 -59 -87 l-13
-64 -6 51 c-8 74 -26 107 -54 101 -19 -3 -22 -1 -18 13 8 26 -27 50 -83 57
-54 6 -62 23 -12 23 35 0 82 17 92 33 4 7 5 20 2 29 -4 12 0 15 15 11 27 -7
50 32 58 98 l7 54 11 -62 c6 -34 17 -69 25 -78z"/>
<path d="M2070 3183 c-430 -19 -906 -82 -1210 -158 -488 -122 -675 -277 -508
-420 162 -138 626 -262 1213 -324 151 -16 325 -31 367 -31 37 0 37 0 26 28 -7
15 -13 28 -13 29 -1 2 -66 10 -146 18 -402 43 -708 108 -888 191 -55 25 -77
31 -91 24 -34 -18 -119 -12 -162 12 -124 70 -119 262 7 323 40 18 123 22 153
6 14 -7 33 -3 78 18 107 51 335 116 477 136 28 5 60 17 77 31 74 63 162 78
252 44 46 -17 62 -19 143 -10 49 5 158 14 240 19 132 9 158 14 220 40 l70 30
-120 -1 c-66 -1 -149 -3 -185 -5z"/>
<path d="M2781 3176 c20 -8 50 -21 68 -30 22 -12 77 -20 179 -26 401 -26 755
-78 987 -145 97 -28 232 -80 252 -96 8 -7 18 -7 32 0 32 18 118 13 161 -9 123
-63 124 -249 2 -318 -42 -23 -128 -30 -161 -13 -13 7 -34 2 -78 -19 -33 -16
-72 -32 -85 -35 l-25 -6 16 -54 c18 -63 3 -62 199 -9 245 67 427 156 480 235
70 102 -46 212 -323 309 -348 121 -945 208 -1550 225 -170 5 -186 4 -154 -9z"/>
<path d="M1910 3068 c-63 -6 -117 -11 -118 -13 -8 -8 43 -65 54 -61 7 3 66 10
133 17 108 11 123 14 153 40 l33 28 -70 -1 c-38 0 -122 -5 -185 -10z"/>
<path d="M3002 3051 c31 -26 44 -30 180 -45 390 -44 653 -119 750 -213 45 -44
55 -81 34 -125 -9 -17 -15 -32 -14 -33 2 -1 20 -11 40 -24 20 -12 50 -37 67
-56 17 -19 35 -35 41 -35 10 0 131 48 138 55 2 1 -8 20 -23 40 -35 52 -35 131
0 190 l24 43 -57 25 c-134 59 -359 114 -622 153 -166 24 -468 54 -548 54 l-43
0 33 -29z"/>
<path d="M1270 2975 c-133 -31 -259 -69 -332 -102 l-57 -25 24 -43 c35 -59 35
-138 0 -189 l-25 -37 62 -28 c115 -52 389 -121 603 -151 138 -19 319 -40 352
-40 29 0 31 2 24 28 -7 26 -11 28 -121 44 -327 49 -537 117 -620 203 -28 29
-35 43 -35 77 0 36 6 46 47 83 26 23 77 55 113 71 59 26 66 32 71 64 4 19 11
43 16 53 11 22 9 22 -122 -8z"/>
<path d="M1935 2963 c-94 -11 -90 -9 -87 -59 10 -117 -82 -228 -205 -249 -99
-16 -222 57 -254 152 l-14 41 -52 -20 c-72 -28 -133 -82 -133 -117 0 -85 252
-184 585 -231 44 -6 90 -13 103 -16 21 -4 22 -2 22 73 0 43 7 109 15 148 16
75 71 200 111 252 l25 33 -43 -1 c-24 -1 -56 -4 -73 -6z"/>
<path d="M3103 2939 c68 -90 117 -253 117 -391 l0 -90 28 6 c15 2 77 12 137
22 l110 16 55 56 c81 82 142 107 260 107 52 0 101 4 108 8 6 5 12 21 12 37 0
101 -346 215 -779 256 l-74 7 26 -34z"/>
<path d="M3338 2437 c-118 -19 -127 -22 -133 -45 -3 -13 -4 -27 -1 -30 7 -6
255 19 260 27 9 16 17 71 9 70 -4 -1 -65 -11 -135 -22z"/>
<path d="M3310 2324 c-63 -7 -118 -13 -122 -13 -4 -1 -15 -15 -24 -32 l-16
-32 109 7 c59 4 129 9 156 13 46 5 47 7 47 39 0 26 -4 34 -17 33 -10 -1 -70
-7 -133 -15z"/>
</g>
</svg>
